<svg xmlns="http://www.w3.org/2000/svg" viewBox="0 0 800 1000" role="img" aria-label="Мистер Коул в аэропорту">
  <defs>
    <linearGradient id="sky" x1="0" x2="0" y1="0" y2="1"><stop stop-color="#dfeaf1"/><stop offset="1" stop-color="#9bb4c7"/></linearGradient>
    <linearGradient id="floor" x1="0" x2="1"><stop stop-color="#718392"/><stop offset="1" stop-color="#a7b3bd"/></linearGradient>
  </defs>
  <rect width="800" height="1000" fill="url(#sky)"/>
  <rect y="650" width="800" height="350" fill="url(#floor)"/>
  <g opacity=".78">
    <rect x="42" y="62" width="716" height="330" rx="20" fill="#eff6f8" stroke="#8ca1ae" stroke-width="8"/>
    <path d="M75 350L725 350M200 65V390M405 65V390M610 65V390" stroke="#a3b3bd" stroke-width="6"/>
    <path d="M94 245 C230 180 355 205 505 155 C590 128 665 128 725 145" fill="none" stroke="#95a6b0" stroke-width="8"/>
    <path d="M575 195l95 18-12 20-87-14z" fill="#eef4f7" stroke="#677984" stroke-width="5"/>
    <path d="M609 182l25-48 9 2-7 50z" fill="#eef4f7" stroke="#677984" stroke-width="4"/>
  </g>
  <g transform="translate(470 104)">
    <rect width="260" height="115" rx="12" fill="#182230"/>
    <text x="20" y="32" fill="#f4c95d" font-family="Arial" font-size="18" font-weight="700">DEPARTURES</text>
    <text x="20" y="60" fill="#fff" font-family="Arial" font-size="15">B12  BOARDING</text>
    <text x="20" y="84" fill="#fff" font-family="Arial" font-size="15">C4   SQ232</text>
  </g>
  <g transform="translate(116 280)">
    <ellipse cx="265" cy="590" rx="198" ry="42" fill="#52616b" opacity=".35"/>
    <rect x="368" y="455" width="125" height="178" rx="20" fill="#51715f" stroke="#33463c" stroke-width="8"/>
    <path d="M430 455V405h48v50" fill="none" stroke="#33463c" stroke-width="11"/>
    <circle cx="389" cy="645" r="15" fill="#263238"/><circle cx="474" cy="645" r="15" fill="#263238"/>
    <ellipse cx="250" cy="320" rx="155" ry="180" fill="#9fa7ac"/>
    <ellipse cx="128" cy="190" rx="76" ry="83" fill="#9fa7ac"/><ellipse cx="372" cy="190" rx="76" ry="83" fill="#9fa7ac"/>
    <ellipse cx="128" cy="190" rx="44" ry="50" fill="#c5cbcf"/><ellipse cx="372" cy="190" rx="44" ry="50" fill="#c5cbcf"/>
    <ellipse cx="250" cy="260" rx="105" ry="118" fill="#b8bfc3"/>
    <ellipse cx="205" cy="235" rx="18" ry="23" fill="#17202a"/><ellipse cx="295" cy="235" rx="18" ry="23" fill="#17202a"/>
    <ellipse cx="250" cy="288" rx="39" ry="51" fill="#30383d"/>
    <path d="M224 342q27 18 54 0" fill="none" stroke="#384147" stroke-width="7" stroke-linecap="round"/>
    <path d="M159 415q91-69 182 0l31 202H128z" fill="#23364f"/>
    <path d="M176 415l74 83 74-83" fill="#e9edf0"/>
    <path d="M250 498l-25 108h50z" fill="#f4c95d"/>
    <path d="M145 455q-55 62-62 162" fill="none" stroke="#9fa7ac" stroke-width="42" stroke-linecap="round"/>
    <path d="M355 455q53 55 69 135" fill="none" stroke="#9fa7ac" stroke-width="42" stroke-linecap="round"/>
    <rect x="44" y="585" width="103" height="74" rx="8" fill="#263f73" stroke="#e1e7ed" stroke-width="5" transform="rotate(-8 44 585)"/>
    <circle cx="94" cy="615" r="14" fill="#d9e1e8"/>
    <path d="M66 638h57" stroke="#d9e1e8" stroke-width="5"/>
    <path d="M176 616v169M324 616v169" stroke="#30343b" stroke-width="58" stroke-linecap="round"/>
    <path d="M171 781h-49M329 781h49" stroke="#171a1f" stroke-width="45" stroke-linecap="round"/>
  </g>
  <rect x="38" y="850" width="724" height="108" rx="18" fill="#111827" opacity=".9"/>
  <text x="70" y="892" fill="#f4c95d" font-family="Arial" font-size="21" font-weight="700">LAST CALL • CASE MC-617</text>
  <text x="70" y="925" fill="#ffffff" font-family="Arial" font-size="28" font-weight="700">MR COLE • SYDNEY AIRPORT</text>
</svg>
